<svg width="400" height="225" xmlns="http://www.w3.org/2000/svg">
  <rect width="100%" height="100%" fill="#ecfdf5"/>
  <rect x="20" y="20" width="360" height="185" rx="8" fill="white" stroke="#10b981" stroke-width="2"/>
  <rect x="40" y="40" width="80" height="50" rx="4" fill="#10b981"/>
  <text x="80" y="70" text-anchor="middle" font-family="Arial" font-size="16" fill="white" font-weight="bold">+25%</text>
  <rect x="140" y="40" width="80" height="50" rx="4" fill="#06b6d4"/>
  <text x="180" y="70" text-anchor="middle" font-family="Arial" font-size="16" fill="white" font-weight="bold">-30%</text>
  <rect x="240" y="40" width="80" height="50" rx="4" fill="#8b5cf6"/>
  <text x="280" y="70" text-anchor="middle" font-family="Arial" font-size="16" fill="white" font-weight="bold">+40%</text>
  <rect x="40" y="100" width="280" height="10" rx="2" fill="#d1fae5"/>
  <rect x="40" y="100" width="200" height="10" rx="2" fill="#10b981"/>
  <rect x="40" y="120" width="280" height="10" rx="2" fill="#cffafe"/>
  <rect x="40" y="120" width="240" height="10" rx="2" fill="#06b6d4"/>
  <rect x="40" y="140" width="280" height="10" rx="2" fill="#ede9fe"/>
  <rect x="40" y="140" width="180" height="10" rx="2" fill="#8b5cf6"/>
  <rect x="40" y="165" width="120" height="8" rx="2" fill="#9ca3af"/>
  <rect x="180" y="165" width="140" height="8" rx="2" fill="#9ca3af"/>
  <text x="200" y="195" text-anchor="middle" font-family="Arial" font-size="14" fill="#065f46" font-weight="bold">Impact Focused Template</text>
</svg>
